<svg xmlns="http://www.w3.org/2000/svg" xmlns:xlink="http://www.w3.org/1999/xlink" width="375" height="812" viewBox="0 0 375 812">
  <defs>
    <radialGradient id="radial-gradient" cx="0.5" cy="0.5" r="0.5" gradientUnits="objectBoundingBox">
      <stop offset="0" stop-color="#004e92"/>
      <stop offset="1" stop-color="#000428"/>
    </radialGradient>
    <clipPath id="clip-path">
      <rect x="-1" y="15" width="456" height="752" fill="none"/>
    </clipPath>
    <filter id="search" x="-41" y="45" width="455" height="203" filterUnits="userSpaceOnUse">
      <feOffset dy="25" input="SourceAlpha"/>
      <feGaussianBlur stdDeviation="20" result="blur"/>
      <feFlood flood-opacity="0.031"/>
      <feComposite operator="in" in2="blur"/>
      <feComposite in="SourceGraphic"/>
    </filter>
    <filter id="search-2" x="-40" y="148" width="455" height="203" filterUnits="userSpaceOnUse">
      <feOffset dy="25" input="SourceAlpha"/>
      <feGaussianBlur stdDeviation="20" result="blur-2"/>
      <feFlood flood-opacity="0.031"/>
      <feComposite operator="in" in2="blur-2"/>
      <feComposite in="SourceGraphic"/>
    </filter>
    <filter id="search-3" x="-40" y="354" width="455" height="203" filterUnits="userSpaceOnUse">
      <feOffset dy="25" input="SourceAlpha"/>
      <feGaussianBlur stdDeviation="20" result="blur-3"/>
      <feFlood flood-opacity="0.031"/>
      <feComposite operator="in" in2="blur-3"/>
      <feComposite in="SourceGraphic"/>
    </filter>
    <filter id="search-4" x="-40" y="251" width="455" height="203" filterUnits="userSpaceOnUse">
      <feOffset dy="25" input="SourceAlpha"/>
      <feGaussianBlur stdDeviation="20" result="blur-4"/>
      <feFlood flood-opacity="0.031"/>
      <feComposite operator="in" in2="blur-4"/>
      <feComposite in="SourceGraphic"/>
    </filter>
    <filter id="search-5" x="-40" y="457" width="455" height="203" filterUnits="userSpaceOnUse">
      <feOffset dy="25" input="SourceAlpha"/>
      <feGaussianBlur stdDeviation="20" result="blur-5"/>
      <feFlood flood-opacity="0.031"/>
      <feComposite operator="in" in2="blur-5"/>
      <feComposite in="SourceGraphic"/>
    </filter>
    <filter id="search-6" x="-40" y="560" width="455" height="203" filterUnits="userSpaceOnUse">
      <feOffset dy="25" input="SourceAlpha"/>
      <feGaussianBlur stdDeviation="20" result="blur-6"/>
      <feFlood flood-opacity="0.031"/>
      <feComposite operator="in" in2="blur-6"/>
      <feComposite in="SourceGraphic"/>
    </filter>
    <filter id="search-7" x="-40" y="663" width="455" height="203" filterUnits="userSpaceOnUse">
      <feOffset dy="25" input="SourceAlpha"/>
      <feGaussianBlur stdDeviation="20" result="blur-7"/>
      <feFlood flood-opacity="0.031"/>
      <feComposite operator="in" in2="blur-7"/>
      <feComposite in="SourceGraphic"/>
    </filter>
    <filter id="search-8" x="-40" y="869" width="455" height="203" filterUnits="userSpaceOnUse">
      <feOffset dy="25" input="SourceAlpha"/>
      <feGaussianBlur stdDeviation="20" result="blur-8"/>
      <feFlood flood-opacity="0.031"/>
      <feComposite operator="in" in2="blur-8"/>
      <feComposite in="SourceGraphic"/>
    </filter>
    <filter id="search-9" x="-40" y="972" width="455" height="203" filterUnits="userSpaceOnUse">
      <feOffset dy="25" input="SourceAlpha"/>
      <feGaussianBlur stdDeviation="20" result="blur-9"/>
      <feFlood flood-opacity="0.031"/>
      <feComposite operator="in" in2="blur-9"/>
      <feComposite in="SourceGraphic"/>
    </filter>
    <filter id="button1" x="-25" y="-10" width="130" height="130" filterUnits="userSpaceOnUse">
      <feOffset dy="15" input="SourceAlpha"/>
      <feGaussianBlur stdDeviation="15" result="blur-10"/>
      <feFlood flood-color="#1466cc" flood-opacity="0.161"/>
      <feComposite operator="in" in2="blur-10"/>
      <feComposite in="SourceGraphic"/>
    </filter>
    <clipPath id="clip-_16">
      <rect width="375" height="812"/>
    </clipPath>
  </defs>
  <g id="_16" data-name="16" clip-path="url(#clip-_16)">
    <rect width="375" height="812" fill="url(#radial-gradient)"/>
    <g id="Scroll_Group_2" data-name="Scroll Group 2" transform="translate(-40 45)" clip-path="url(#clip-path)" style="isolation: isolate">
      <g id="Group_3273" data-name="Group 3273" transform="translate(40 -45)">
        <g id="Group_3271" data-name="Group 3271">
          <g transform="matrix(1, 0, 0, 1, 0, 0)" filter="url(#search)">
            <rect id="search-10" data-name="search" width="335" height="83" rx="24" transform="translate(19 80)" fill="#0d0d0d"/>
          </g>
          <g transform="matrix(1, 0, 0, 1, 0, 0)" filter="url(#search-2)">
            <rect id="search-11" data-name="search" width="335" height="83" rx="24" transform="translate(20 183)" fill="#0d0d0d"/>
          </g>
          <g transform="matrix(1, 0, 0, 1, 0, 0)" filter="url(#search-3)">
            <rect id="search-12" data-name="search" width="335" height="83" rx="24" transform="translate(20 389)" fill="#0d0d0d"/>
          </g>
          <g transform="matrix(1, 0, 0, 1, 0, 0)" filter="url(#search-4)">
            <rect id="search-13" data-name="search" width="335" height="83" rx="24" transform="translate(20 286)" fill="#0d0d0d"/>
          </g>
          <g transform="matrix(1, 0, 0, 1, 0, 0)" filter="url(#search-5)">
            <rect id="search-14" data-name="search" width="335" height="83" rx="24" transform="translate(20 492)" fill="#0d0d0d"/>
          </g>
          <g id="Group_3266" data-name="Group 3266" transform="translate(82 -285)">
            <text id="Coffee_mug" data-name="Coffee mug" transform="translate(40 385)" fill="#fff" font-size="15" font-family="SegoeUI, Segoe UI"><tspan x="0" y="16">System Connection</tspan></text>
            <text id="Beautiful_and_durabl" data-name="Beautiful and durabl" transform="translate(41 411)" fill="#fff" font-size="12" font-family="SegoeUI, Segoe UI" opacity="0.4"><tspan x="0" y="13">Connection Successful : 3 Mins Ago</tspan></text>
          </g>
          <g id="Group_3267" data-name="Group 3267" transform="translate(-14 -182)">
            <text id="Coffee_mug-2" data-name="Coffee mug" transform="translate(136 385)" fill="#fff" font-size="15" font-family="SegoeUI, Segoe UI"><tspan x="0" y="16">RAM Usage</tspan></text>
            <text id="Beautiful_and_durabl-2" data-name="Beautiful and durabl" transform="translate(137 411)" fill="#fff" font-size="12" font-family="SegoeUI, Segoe UI" opacity="0.4"><tspan x="0" y="13" xml:space="preserve">300mb  of 1GB in use</tspan></text>
          </g>
          <g id="Group_3269" data-name="Group 3269" transform="translate(80 24)">
            <text id="Coffee_mug-3" data-name="Coffee mug" transform="translate(40 385)" fill="#fff" font-size="15" font-family="SegoeUI, Segoe UI"><tspan x="0" y="16">GPS Connection Stability</tspan></text>
            <text id="Beautiful_and_durabl-3" data-name="Beautiful and durabl" transform="translate(41 411)" fill="#fff" font-size="12" font-family="SegoeUI, Segoe UI" opacity="0.4"><tspan x="0" y="13">78%</tspan></text>
          </g>
          <g id="Group_3268" data-name="Group 3268" transform="translate(82 -79)">
            <text id="Coffee_mug-4" data-name="Coffee mug" transform="translate(40 385)" fill="#fff" font-size="15" font-family="SegoeUI, Segoe UI"><tspan x="0" y="16">Network Speed</tspan></text>
            <text id="Beautiful_and_durabl-4" data-name="Beautiful and durabl" transform="translate(41 411)" fill="#fff" font-size="12" font-family="SegoeUI, Segoe UI" opacity="0.4"><tspan x="0" y="13">14 mbps</tspan></text>
            <g id="Layer_2" data-name="Layer 2" transform="translate(-41 380)">
              <g id="invisible_box" data-name="invisible box">
                <rect id="Rectangle_2863" data-name="Rectangle 2863" width="48" height="48" fill="none"/>
              </g>
              <g id="Q3_icons" data-name="Q3 icons">
                <g id="Group_3343" data-name="Group 3343">
                  <path id="Path_27561" data-name="Path 27561" d="M24,25a15.1,15.1,0,0,0-11.7,5.5A2,2,0,0,0,15.4,33a11.245,11.245,0,0,1,17.2,0,2,2,0,1,0,3.1-2.5A15.1,15.1,0,0,0,24,25Z" fill="#fff"/>
                  <path id="Path_27562" data-name="Path 27562" d="M24,17A22.9,22.9,0,0,0,7.5,23.9a2,2,0,0,0-.2,2.6,1.9,1.9,0,0,0,3,.2,19.3,19.3,0,0,1,27.4,0,1.9,1.9,0,0,0,3-.2,2,2,0,0,0-.2-2.6A22.9,22.9,0,0,0,24,17Z" fill="#fff"/>
                  <path id="Path_27563" data-name="Path 27563" d="M45.4,17.4a31.5,31.5,0,0,0-42.8,0,2.1,2.1,0,0,0-.2,2.7h0a1.9,1.9,0,0,0,3,.2,27.3,27.3,0,0,1,37.2,0,1.9,1.9,0,0,0,3-.2h0a2.1,2.1,0,0,0-.2-2.7Z" fill="#fff"/>
                  <circle id="Ellipse_261" data-name="Ellipse 261" cx="5" cy="5" r="5" transform="translate(19 33)" fill="#fff"/>
                </g>
              </g>
            </g>
          </g>
          <g id="Group_3270" data-name="Group 3270" transform="translate(80 127)">
            <text id="Coffee_mug-5" data-name="Coffee mug" transform="translate(40 385)" fill="#fff" font-size="15" font-family="SegoeUI, Segoe UI"><tspan x="0" y="16">Power Consumption</tspan></text>
            <text id="Beautiful_and_durabl-5" data-name="Beautiful and durabl" transform="translate(41 411)" fill="#fff" font-size="12" font-family="SegoeUI, Segoe UI" opacity="0.4"><tspan x="0" y="13">4.5 Watts</tspan></text>
          </g>
          <g id="Layer_2-2" data-name="Layer 2" transform="translate(40 98)">
            <g id="invisible_box-2" data-name="invisible box">
              <rect id="Rectangle_2862" data-name="Rectangle 2862" width="48" height="48" fill="none"/>
            </g>
            <g id="Q3_icons-2" data-name="Q3 icons">
              <g id="Group_3342" data-name="Group 3342">
                <path id="Path_27555" data-name="Path 27555" d="M16.9,22.7a6,6,0,0,1,8.4,0,2,2,0,0,0,2.8-2.8,9.8,9.8,0,0,0-14,0L6.9,27.1a9.8,9.8,0,0,0,0,14,9.9,9.9,0,0,0,14,0l4.5-4.7a2,2,0,0,0-2.8-2.8l-4.5,4.7a5.94,5.94,0,1,1-8.4-8.4Z" fill="#fff"/>
                <path id="Path_27556" data-name="Path 27556" d="M11.6,18.6a2,2,0,0,0,2.7-.9,1.9,1.9,0,0,0-.8-2.6L6.4,11.4a2,2,0,0,0-2.7.9,1.9,1.9,0,0,0,.8,2.6Z" fill="#fff"/>
                <path id="Path_27557" data-name="Path 27557" d="M16.1,13.5a1.9,1.9,0,0,0,2.6.8,2,2,0,0,0,.9-2.7L15.9,4.5a1.9,1.9,0,0,0-2.6-.8,2,2,0,0,0-.9,2.7Z" fill="#fff"/>
                <path id="Path_27558" data-name="Path 27558" d="M43.2,32.8l-7.1-3.6a2,2,0,1,0-1.8,3.5l7.1,3.7a2.012,2.012,0,1,0,1.8-3.6Z" fill="#fff"/>
                <path id="Path_27559" data-name="Path 27559" d="M31.7,34.3a2,2,0,1,0-3.5,1.8l3.6,7.1a2.012,2.012,0,1,0,3.6-1.8Z" fill="#fff"/>
                <path id="Path_27560" data-name="Path 27560" d="M25.4,14.4l4.5-4.7a5.94,5.94,0,1,1,8.4,8.4l-6.1,6.1L35,27l6.1-6.1a9.9,9.9,0,1,0-14-14l-4.5,4.7a2,2,0,0,0,2.8,2.8Z" fill="#fff"/>
              </g>
            </g>
          </g>
          <path id="Icon_metro-power-cord" data-name="Icon metro-power-cord" d="M52.536,16.071,48,11.54,39.056,20.49l-5.082-5.082,8.949-8.949L38.393,1.928l-8.949,8.949L23.7,5.132,19.362,9.469,45,35.1l4.337-4.337L43.587,25.02ZM41.023,35.661,18.8,13.441c-4.8,5.753-10.239,14.642-6.478,22.29L5.7,42.352a4.017,4.017,0,0,0,0,5.664l.744.744a4.017,4.017,0,0,0,5.664,0l6.621-6.621c7.648,3.761,16.537-1.68,22.29-6.478Z" transform="translate(36.464 510.072)" fill="#fff"/>
        </g>
        <g id="Group_3272" data-name="Group 3272" transform="translate(0 515)">
          <g transform="matrix(1, 0, 0, 1, 0, -515)" filter="url(#search-6)">
            <rect id="search-15" data-name="search" width="335" height="83" rx="24" transform="translate(20 595)" fill="#0d0d0d"/>
          </g>
          <g transform="matrix(1, 0, 0, 1, 0, -515)" filter="url(#search-7)">
            <rect id="search-16" data-name="search" width="335" height="83" rx="24" transform="translate(20 698)" fill="#0d0d0d"/>
          </g>
          <g transform="matrix(1, 0, 0, 1, 0, -515)" filter="url(#search-8)">
            <rect id="search-17" data-name="search" width="335" height="83" rx="24" transform="translate(20 904)" fill="#0d0d0d"/>
          </g>
          <g transform="matrix(1, 0, 0, 1, 0, -515)" filter="url(#search-9)">
            <rect id="search-18" data-name="search" width="335" height="83" rx="24" transform="translate(20 1007)" fill="#0d0d0d"/>
          </g>
          <g id="Group_3266-2" data-name="Group 3266" transform="translate(80 -285)">
            <text id="Coffee_mug-6" data-name="Coffee mug" transform="translate(40 385)" fill="#fff" font-size="15" font-family="SegoeUI, Segoe UI"><tspan x="0" y="16">Temperature</tspan></text>
            <text id="Beautiful_and_durabl-6" data-name="Beautiful and durabl" transform="translate(41 411)" fill="#fff" font-size="12" font-family="SegoeUI, Segoe UI" opacity="0.4"><tspan x="0" y="13">56° C</tspan></text>
          </g>
          <g id="Group_3267-2" data-name="Group 3267" transform="translate(80 -182)">
            <text id="Coffee_mug-7" data-name="Coffee mug" transform="translate(40 385)" fill="#fff" font-size="15" font-family="SegoeUI, Segoe UI"><tspan x="0" y="16">Up-Time</tspan></text>
            <text id="Beautiful_and_durabl-7" data-name="Beautiful and durabl" transform="translate(41 411)" fill="#fff" font-size="12" font-family="SegoeUI, Segoe UI" opacity="0.4"><tspan x="0" y="13">4 hrs 24 mins</tspan></text>
          </g>
          <g id="Group_3269-2" data-name="Group 3269" transform="translate(0 24)">
            <text id="Coffee_mug-8" data-name="Coffee mug" transform="translate(40 385)" fill="#fff" font-size="15" font-family="SegoeUI, Segoe UI"><tspan x="0" y="16">System</tspan></text>
            <text id="Beautiful_and_durabl-8" data-name="Beautiful and durabl" transform="translate(41 411)" fill="#fff" font-size="12" font-family="SegoeUI, Segoe UI" opacity="0.4"><tspan x="0" y="13">Your booking #2384435 has been successed!</tspan></text>
          </g>
          <g id="Group_3268-2" data-name="Group 3268" transform="translate(0 -79)">
            <text id="Coffee_mug-9" data-name="Coffee mug" transform="translate(40 385)" fill="#fff" font-size="15" font-family="SegoeUI, Segoe UI"><tspan x="0" y="16">Promotion</tspan></text>
            <text id="Beautiful_and_durabl-9" data-name="Beautiful and durabl" transform="translate(41 411)" fill="#fff" font-size="12" font-family="SegoeUI, Segoe UI" opacity="0.4"><tspan x="0" y="13">Invite friends! Get 03 coupons each.</tspan></text>
          </g>
          <g id="Group_3270-2" data-name="Group 3270" transform="translate(0 127)">
            <text id="Coffee_mug-10" data-name="Coffee mug" transform="translate(40 385)" fill="#fff" font-size="15" font-family="SegoeUI, Segoe UI"><tspan x="0" y="16">Promotion</tspan></text>
            <text id="Beautiful_and_durabl-10" data-name="Beautiful and durabl" transform="translate(41 411)" fill="#fff" font-size="12" font-family="SegoeUI, Segoe UI" opacity="0.4"><tspan x="0" y="13">Invite friends! Get 03 coupons each.</tspan></text>
          </g>
          <path id="Icon_awesome-temperature-high" data-name="Icon awesome-temperature-high" d="M39,0a9,9,0,1,0,9,9A9.014,9.014,0,0,0,39,0Zm0,12a3,3,0,1,1,3-3A3,3,0,0,1,39,12ZM24,10.5a10.5,10.5,0,0,0-21,0V26.109A13.475,13.475,0,1,0,27,34.5a13.379,13.379,0,0,0-3-8.391ZM13.5,42A7.488,7.488,0,0,1,9,28.519V10.5a4.5,4.5,0,0,1,9,0V28.519A7.488,7.488,0,0,1,13.5,42ZM15,30.272V10.5a1.5,1.5,0,0,0-3,0V30.272a4.5,4.5,0,1,0,3,0Z" transform="translate(40.1 100)" fill="#fff"/>
          <path id="Icon_material-timer" data-name="Icon material-timer" d="M34.5,1.5h-15V6.071h15Zm-10,29.714h5V17.5h-5ZM44.575,16.106l3.55-3.246A26.57,26.57,0,0,0,44.6,9.637l-3.55,3.246A23.743,23.743,0,0,0,27,8.357c-12.425,0-22.5,9.211-22.5,20.571S14.55,49.5,27,49.5s22.5-9.211,22.5-20.571A19.424,19.424,0,0,0,44.575,16.106ZM27,44.929c-9.675,0-17.5-7.154-17.5-16s7.825-16,17.5-16,17.5,7.154,17.5,16S36.675,44.929,27,44.929Z" transform="translate(35.5 201.5)" fill="#fff"/>
        </g>
      </g>
    </g>
    <text id="Coffee_mug-11" data-name="Coffee mug" transform="translate(80 25)" fill="#fff" font-size="24" font-family="SegoeUI, Segoe UI"><tspan x="0" y="26">Device Status</tspan></text>
    <g id="Group_25" data-name="Group 25" transform="translate(20 20)">
      <g id="button3">
        <g transform="matrix(1, 0, 0, 1, -20, -20)" filter="url(#button1)">
          <rect id="button1-2" data-name="button1" width="40" height="40" rx="12" transform="translate(20 20)"/>
        </g>
      </g>
      <g id="arrow-right" transform="translate(17 16)">
        <path id="Path" d="M4,0,0,4,4,8" fill="none" stroke="#fff" stroke-linecap="round" stroke-linejoin="round" stroke-miterlimit="10" stroke-width="1.66"/>
      </g>
    </g>
    <g id="Layer_2-3" data-name="Layer 2" transform="translate(42 200)">
      <g id="invisible_box-3" data-name="invisible box">
        <rect id="Rectangle_2861" data-name="Rectangle 2861" width="50" height="50" fill="none"/>
      </g>
      <g id="icons_Q2" data-name="icons Q2" transform="translate(4 4)">
        <path id="Path_27554" data-name="Path 27554" d="M43.517,41.84H8.16V35.218l.416-.315,9.983-10.091L24.9,31.224,39.358,16.719v5.045a2.2,2.2,0,0,0,1.768,2.207,2.065,2.065,0,0,0,1.677-.492,2.112,2.112,0,0,0,.715-1.61V11.358a2.091,2.091,0,0,0-2.08-2.1h-10.4a2.07,2.07,0,0,0-1.593.723,2.118,2.118,0,0,0-.487,1.695,2.19,2.19,0,0,0,2.184,1.787H36.55L24.695,25.022l-6.136-6.1L8.16,29.437V6.1A2.08,2.08,0,1,0,4,6.1V46.045H43.517a2.1,2.1,0,0,0,0-4.2Z" transform="translate(-4 -4)" fill="#fff"/>
      </g>
    </g>
    <g id="Layer_2-4" data-name="Layer 2" transform="translate(41 412)">
      <g id="invisible_box-4" data-name="invisible box">
        <rect id="Rectangle_2864" data-name="Rectangle 2864" width="48" height="48" fill="none"/>
      </g>
      <g id="icons_Q2-2" data-name="icons Q2">
        <path id="Path_27564" data-name="Path 27564" d="M24,2A21.9,21.9,0,1,0,39.586,8.414,22,22,0,0,0,24,2ZM40.1,16H35.2a27.8,27.8,0,0,0-3-8,18.5,18.5,0,0,1,7.9,8ZM42,24a17.5,17.5,0,0,1-.5,4H35.8c.1-1.3.2-2.6.2-4s-.1-2.7-.2-4h5.7a17.5,17.5,0,0,1,.5,4ZM6,24a17.5,17.5,0,0,1,.5-4h5.7c-.1,1.3-.2,2.6-.2,4s.1,2.7.2,4H6.5A17.5,17.5,0,0,1,6,24Zm10,0c0-1.4.1-2.7.2-4H22v8H16.2C16.1,26.7,16,25.4,16,24ZM26,6.7a11.7,11.7,0,0,1,3,3.7A21.7,21.7,0,0,1,31.1,16H26Zm-4,0V16H16.9A21.7,21.7,0,0,1,19,10.4a11.7,11.7,0,0,1,3-3.7ZM22,32v9.3a11.7,11.7,0,0,1-3-3.7A21.7,21.7,0,0,1,16.9,32Zm4,9.3V32h5.1A21.7,21.7,0,0,1,29,37.6a11.7,11.7,0,0,1-3,3.7ZM26,28V20h5.8c.1,1.3.2,2.6.2,4s-.1,2.7-.2,4ZM15.8,8a27.8,27.8,0,0,0-3,8H7.9a18.5,18.5,0,0,1,7.9-8ZM7.9,32h4.9a27.8,27.8,0,0,0,3,8,18.5,18.5,0,0,1-7.9-8Zm24.3,8a27.8,27.8,0,0,0,3-8h4.9A18.5,18.5,0,0,1,32.2,40Z" fill="#fff"/>
      </g>
    </g>
  </g>
</svg>
